<?xml version="1.0" encoding="utf-8"?>
<!-- Generator: Adobe Illustrator 16.0.0, SVG Export Plug-In . SVG Version: 6.00 Build 0)  -->
<!DOCTYPE svg PUBLIC "-//W3C//DTD SVG 1.1//EN" "http://www.w3.org/Graphics/SVG/1.1/DTD/svg11.dtd">
<svg version="1.1" id="Слой_1" xmlns="http://www.w3.org/2000/svg" xmlns:xlink="http://www.w3.org/1999/xlink" x="0px" y="0px"
	 width="58.695px" height="58.697px" viewBox="0 0 58.695 58.697" enable-background="new 0 0 58.695 58.697" xml:space="preserve">
<path fill="#201600" d="M31.168,58.634c0.243-0.016,0.483-0.033,0.722-0.055c14.996-1.293,26.806-13.906,26.806-29.232
	C58.695,13.166,45.53,0,29.345,0c-7.838,0-15.206,3.053-20.75,8.596S-0.003,21.51,0,29.348c0,16.183,13.165,29.349,29.348,29.349
	c0.127,0,0.255-0.008,0.382-0.01c0.293-0.004,0.582-0.01,0.872-0.023C30.788,58.658,30.979,58.646,31.168,58.634z M53.383,29.348
	c0,5.85-2.103,11.212-5.586,15.384c0.037-0.426,0.058-0.855,0.058-1.289c0-4.246-1.792-8.447-4.919-11.533
	c-0.604-0.596-1.251-1.145-1.936-1.646c-1.631-1.193-3.465-2.094-5.394-2.684c-1.182-0.361-2.398-0.605-3.627-0.746
	c-1.406-0.158-2.812-0.092-4.221-0.199c-1.888-0.141-3.777-0.527-5.527-1.258c-1.666-0.697-3.22-1.73-4.33-3.172
	c-1.2-1.562-1.748-3.49-1.748-5.447c0-5.547,4.623-11.441,13.194-11.445C42.601,5.312,53.383,16.096,53.383,29.348z M5.312,29.348
	c0-5.83,2.067-11.342,5.847-15.705c-0.21,1.025-0.318,2.07-0.318,3.115c0,7.592,5.722,15.252,18.507,15.252v-0.008
	c8.571,0,13.194,5.896,13.194,11.441c0,2.619-1.05,5.01-2.953,6.73c-1.741,1.572-4.165,2.588-7.114,3
	c-0.012,0.002-0.025,0.002-0.037,0.004c-0.284,0.041-0.575,0.072-0.87,0.1c-0.261,0.023-0.522,0.045-0.786,0.061
	c-0.141,0.008-0.284,0.014-0.43,0.02c-0.225,0.012-0.453,0.016-0.683,0.018c-0.106,0.002-0.213,0.006-0.321,0.006v0.004
	C16.095,53.384,5.312,42.601,5.312,29.348z"/>
</svg>
