<?xml version="1.0" encoding="utf-8"?>
<svg id="Слой_1" x="0px" y="0px" width="58.695px" height="58.696px" viewBox="0 0 58.695 58.696" xmlns="http://www.w3.org/2000/svg">
  <path d="M31.168,58.634c0.243-0.016,0.483-0.033,0.722-0.055c14.996-1.293,26.806-13.906,26.806-29.232&#10;&#9;C58.695,13.166,45.53,0,29.345,0c-7.838,0-15.206,3.053-20.75,8.597C3.051,14.14-0.003,21.51,0,29.348&#10;&#9;c0,16.183,13.165,29.349,29.348,29.349c0.127,0,0.255-0.008,0.382-0.01c0.293-0.004,0.582-0.01,0.872-0.023&#10;&#9;C30.788,58.658,30.979,58.646,31.168,58.634z M53.383,29.348c0,5.849-2.103,11.212-5.586,15.384&#10;&#9;c0.037-0.426,0.058-0.855,0.058-1.289c0-4.246-1.792-8.448-4.919-11.534c-0.604-0.595-1.251-1.145-1.936-1.646&#10;&#9;c-1.631-1.192-3.465-2.094-5.394-2.684c-1.182-0.36-2.398-0.605-3.627-0.745c-1.406-0.159-2.812-0.093-4.221-0.199&#10;&#9;c-1.888-0.141-3.777-0.527-5.527-1.259c-1.666-0.696-3.22-1.73-4.33-3.172c-1.2-1.562-1.748-3.49-1.748-5.447&#10;&#9;c0-5.546,4.623-11.441,13.194-11.444C42.601,5.313,53.383,16.096,53.383,29.348z M5.312,29.348c0-5.83,2.067-11.341,5.847-15.704&#10;&#9;c-0.21,1.025-0.318,2.069-0.318,3.114c0,7.592,5.722,15.251,18.507,15.251v-0.007c8.571,0,13.194,5.896,13.194,11.441&#10;&#9;c0,2.619-1.05,5.01-2.953,6.73c-1.741,1.572-4.165,2.588-7.114,3c-0.012,0.002-0.025,0.002-0.037,0.004&#10;&#9;c-0.284,0.041-0.575,0.072-0.87,0.1c-0.261,0.023-0.522,0.045-0.786,0.061c-0.141,0.008-0.284,0.014-0.43,0.02&#10;&#9;c-0.225,0.012-0.453,0.016-0.683,0.018c-0.106,0.002-0.213,0.006-0.321,0.006v0.004C16.095,53.384,5.312,42.601,5.312,29.348z" style="fill: rgb(246, 249, 252);"/>
</svg>